<svg width="65" height="49" viewBox="0 0 65 49" fill="none" xmlns="http://www.w3.org/2000/svg">
<path d="M55.9696 8.07376C55.9162 7.91622 55.8601 7.66534 55.7934 7.38243C55.353 5.59124 54.9392 3.8989 53.3029 3.27427L45.535 0.319278C44.0295 -0.251926 42.3424 -0.0464674 41.0131 0.879846L40.5326 1.30966C40.1428 1.75548 39.6143 2.3133 39.2379 2.67103H24.9249C24.6072 2.33732 24.1828 1.8462 23.8278 1.40575L23.2726 0.885226C21.9432 -0.0437147 20.2509 -0.257306 18.7534 0.319278L10.9774 3.27427C9.34911 3.89352 8.9407 5.56722 8.50551 7.34239C8.43882 7.61204 8.38276 7.85754 8.40403 7.85754C8.40403 7.85754 8.40666 7.85754 8.40941 7.85491C5.76148 13.0762 -6.83265 39.5082 4.95792 47.3109C6.645 48.4266 8.8899 48.2505 10.4248 46.8784L19.6662 38.5927C20.4804 37.8613 21.5161 37.4581 22.5785 37.4581H41.7045C42.767 37.4581 43.8 37.8612 44.6168 38.5927L53.8582 46.8784C54.7285 47.6579 55.8122 48.0556 56.8959 48.0556C57.7662 48.0556 58.6337 47.7967 59.3838 47.2682C69.789 39.9674 60.4141 17.3097 55.9696 8.07376ZM42.7269 10.679C44.2004 10.679 45.3963 11.8749 45.3963 13.3484C45.3963 14.8218 44.2004 16.0177 42.7269 16.0177C41.2534 16.0177 40.0576 14.8218 40.0576 13.3484C40.0576 11.8749 41.2534 10.679 42.7269 10.679ZM26.7107 24.0259H24.0414V26.6952C24.0414 28.1687 22.8482 29.3646 21.372 29.3646C19.8959 29.3646 18.7027 28.1687 18.7027 26.6952V24.0259H16.0334C14.5573 24.0259 13.3641 22.8301 13.3641 21.3566C13.3641 19.8831 14.5573 18.6873 16.0334 18.6873H18.7027V16.0179C18.7027 14.5444 19.8959 13.3486 21.372 13.3486C22.8482 13.3486 24.0414 14.5444 24.0414 16.0179V18.6873H26.7107C28.1868 18.6873 29.38 19.8831 29.38 21.3566C29.38 22.8301 28.1868 24.0259 26.7107 24.0259ZM37.3881 21.3566C35.9146 21.3566 34.7188 20.1608 34.7188 18.6873C34.7188 17.2138 35.9146 16.0179 37.3881 16.0179C38.8616 16.0179 40.0575 17.2138 40.0575 18.6873C40.0575 20.1608 38.8616 21.3566 37.3881 21.3566ZM42.7269 26.6952C41.2534 26.6952 40.0576 25.4994 40.0576 24.0259C40.0576 22.5524 41.2534 21.3566 42.7269 21.3566C44.2004 21.3566 45.3963 22.5524 45.3963 24.0259C45.3963 25.4994 44.2004 26.6952 42.7269 26.6952ZM48.0656 21.3566C46.5921 21.3566 45.3963 20.1608 45.3963 18.6873C45.3963 17.2138 46.5921 16.0179 48.0656 16.0179C49.5391 16.0179 50.7349 17.2138 50.7349 18.6873C50.7349 20.1608 49.5391 21.3566 48.0656 21.3566Z" fill="#A48044"/>
</svg>
